<?xml version="1.0" encoding="UTF-8" standalone="no"?>
<svg width="86px" height="75px" viewBox="0 0 86 75" version="1.1" xmlns="http://www.w3.org/2000/svg" xmlns:xlink="http://www.w3.org/1999/xlink" xmlns:sketch="http://www.bohemiancoding.com/sketch/ns">
    <!-- Generator: Sketch 3.3.1 (12005) - http://www.bohemiancoding.com/sketch -->
    <title>bg-airship</title>
    <desc>Created with Sketch.</desc>
    <defs></defs>
    <g id="Page-1" stroke="none" stroke-width="1" fill="none" fill-rule="evenodd" sketch:type="MSPage">
        <g id="home" sketch:type="MSArtboardGroup" transform="translate(-958.000000, -208.000000)">
            <g id="background" sketch:type="MSLayerGroup" transform="translate(-51.000000, 78.000000)">
                <g id="bg-sky" transform="translate(118.000000, 0.000000)" sketch:type="MSShapeGroup">
                    <g id="bg-airship" transform="translate(891.000000, 131.000000)">
                        <path d="M43.2097,39.720718 C67.0737584,39.720718 83.4823997,22.5698418 83.4823997,22.5698418 C85.1044602,21.0734358 84.8164199,20.6391633 82.7895429,21.5460967 C82.7895429,21.5460967 67.0737584,30 43.2097,30 C19.3456417,30 3.6166555,21.5404021 3.6166555,21.5404021 C1.61923182,20.6125399 1.29453239,21.1027134 2.93700034,22.5698418 C2.93700034,22.5698418 19.3456417,39.720718 43.2097,39.720718 Z" id="Oval-10" fill="#E1E1E1"></path>
                        <path d="M43.2097,39.720718 C67.0737584,39.720718 83.4823997,22.5698418 83.4823997,22.5698418 C85.1044602,21.0734358 85.1248677,18.6180046 83.4823997,17.1508762 C83.4823997,17.1508762 67.0737584,0 43.2097,0 C19.3456417,0 2.93700034,17.1508762 2.93700034,17.1508762 C1.31493984,18.6472822 1.29453239,21.1027134 2.93700034,22.5698418 C2.93700034,22.5698418 19.3456417,39.720718 43.2097,39.720718 Z" id="Oval-1" stroke="#737373" stroke-width="2" stroke-linecap="round"></path>
                        <path d="M43.2097,30.0882634 C67.0737584,30.0882634 82.815924,21.5308424 82.815924,21.5308424 C84.8060689,20.5960568 84.8164199,19.0509827 82.8027446,18.1399348 C82.8027446,18.1399348 67.0737584,9.58826336 43.2097,9.58826336 C19.3456417,9.58826336 3.60347608,18.1456843 3.60347608,18.1456843 C1.61333119,19.0804699 1.60298011,20.625544 3.6166555,21.5365919 C3.6166555,21.5365919 19.3456417,30.0882634 43.2097,30.0882634 Z" id="Oval-11" fill="#F8F8F8"></path>
                        <path d="M43.2097,30.0882634 C67.0737584,30.0882634 82.815924,21.5308424 82.815924,21.5308424 C84.8060689,20.5960568 84.8164199,19.0509827 82.8027446,18.1399348 C82.8027446,18.1399348 67.0737584,9.58826336 43.2097,9.58826336 C19.3456417,9.58826336 3.60347608,18.1456843 3.60347608,18.1456843 C1.61333119,19.0804699 1.60298011,20.625544 3.6166555,21.5365919 C3.6166555,21.5365919 19.3456417,30.0882634 43.2097,30.0882634 Z" id="Oval-12" stroke="#737373" stroke-linecap="round"></path>
                        <path d="M1.61029938,20 L84.6802738,20" id="Path-1" stroke="#737373" stroke-linecap="round"></path>
                        <path d="M43,0.53676646 L43,39.0443911" id="Path-2" stroke="#737373" stroke-linecap="round"></path>
                        <path d="M33,1.61029938 L33,37.9708603" id="Path-3" stroke="#737373" stroke-linecap="round"></path>
                        <path d="M22,5.3676646 L22,34.2134951" id="Path-4" stroke="#737373" stroke-linecap="round"></path>
                        <path d="M11,11.2720957 L11,28.309063" id="Path-5" stroke="#737373" stroke-linecap="round"></path>
                        <path d="M54,2.14706584 L54,37.4340938" id="Path-8" stroke="#737373" stroke-linecap="round"></path>
                        <path d="M65,5.3676646 L65,34.2134951" id="Path-7" stroke="#737373" stroke-linecap="round"></path>
                        <path d="M76,11.8088621 L76,28.309063" id="Path-6" stroke="#737373" stroke-linecap="round"></path>
                        <path d="M22.3340147,34.5893432 L25.017847,57.5628398" id="Path-9" stroke="#737373" stroke-linecap="round"></path>
                        <path d="M64.738565,34.5893432 L62.1707356,56.5698599" id="Path-12" stroke="#737373" stroke-linecap="round"></path>
                        <path d="M21.9597863,35.5893432 L59.0030306,57.425049" id="Path-14" stroke="#737373" stroke-linecap="round"></path>
                        <path d="M27.9597863,35.5893432 L65.0030306,57.425049" id="Path-16" stroke="#737373" stroke-linecap="round" transform="translate(46.481408, 46.507196) scale(-1, 1) translate(-46.481408, -46.507196) "></path>
                        <path d="M33.0693439,36.736409 L35.4051056,56.7304352" id="Path-10" stroke="#737373" stroke-linecap="round"></path>
                        <path d="M54.0032358,36.736409 L51.6674741,56.7304352" id="Path-11" stroke="#737373" stroke-linecap="round"></path>
                        <path d="M18.3189439,62.9336632 C17.9844523,61.3134457 19.053157,60 20.7112645,60 L67.3184349,60 C68.9741688,60 70.0442965,61.3180505 69.7107555,62.9336632 L68.6433916,68.1037817 C68.0851324,70.8078884 65.3860873,73 62.6334273,73 L25.3962721,73 C22.6353197,73 19.9448848,70.8094275 19.3863079,68.1037817 L18.3189439,62.9336632 Z" id="Rectangle-2" fill="#F8F8F8"></path>
                        <path d="M19.7048703,71.1512985 C19.1689195,70.5154539 19.397595,70 20.2312489,70 L66.799919,70 C67.6265807,70 67.867765,70.5089091 67.3262976,71.1512985 L66.7384595,71.8487015 C66.2025087,72.4845461 65.10437,73 64.2617754,73 L22.7693925,73 C21.9375084,73 20.8341758,72.4910909 20.2927084,71.8487015 L19.7048703,71.1512985 Z" id="shad" fill="#E1E1E1"></path>
                        <path d="M18.2086771,59.9532926 C17.9350841,58.3222341 19.053157,57 20.7112645,57 L67.3184349,57 C68.9741688,57 70.0944937,58.3229595 69.8210224,59.9532926 L68.4597114,68.0689175 C68.002896,70.7922792 65.3860873,73 62.6334273,73 L25.3962721,73 C22.6353197,73 20.0267679,70.792067 19.5699881,68.0689175 L18.2086771,59.9532926 Z" id="Rectangle-3" stroke="#737373" stroke-width="2" stroke-linecap="round"></path>
                        <ellipse id="Oval-3" stroke="#737373" stroke-linecap="round" cx="27.3015565" cy="64.1470658" rx="2.14706584" ry="2.14706584"></ellipse>
                        <ellipse id="Oval-4" stroke="#737373" stroke-linecap="round" cx="34.8898199" cy="64.1470658" rx="2.14706584" ry="2.14706584"></ellipse>
                        <ellipse id="Oval-5" stroke="#737373" stroke-linecap="round" cx="42.4780833" cy="64.1470658" rx="2.14706584" ry="2.14706584"></ellipse>
                        <ellipse id="Oval-6" stroke="#737373" stroke-linecap="round" cx="50.0663466" cy="64.1470658" rx="2.14706584" ry="2.14706584"></ellipse>
                        <ellipse id="Oval-7" stroke="#737373" stroke-linecap="round" cx="57.65461" cy="64.1470658" rx="2.14706584" ry="2.14706584"></ellipse>
                        <path d="M67,57 L75,57" id="Path-15" stroke="#737373" stroke-width="2" stroke-linecap="round"></path>
                        <path d="M78,58 C78,58 80,54.9512703 80,53.5454545 C80,52.1396388 79.1045695,51 78,51 C76.8954305,51 76,52.1396388 76,53.5454545 C76,54.9512703 78,58 78,58 Z" id="Oval-8" stroke="#737373" stroke-width="2" stroke-linecap="round" transform="translate(78.000000, 54.500000) rotate(40.000000) translate(-78.000000, -54.500000) "></path>
                        <path d="M78,63 C78,63 80,59.9512703 80,58.5454545 C80,57.1396388 79.1045695,56 78,56 C76.8954305,56 76,57.1396388 76,58.5454545 C76,59.9512703 78,63 78,63 Z" id="Oval-9" stroke="#737373" stroke-width="2" stroke-linecap="round" transform="translate(78.000000, 59.500000) scale(1, -1) rotate(40.000000) translate(-78.000000, -59.500000) "></path>
                    </g>
                </g>
            </g>
        </g>
    </g>
</svg>