<?xml version="1.0" encoding="UTF-8" standalone="no"?>
<svg width="61px" height="32px" viewBox="0 0 61 32" version="1.1" xmlns="http://www.w3.org/2000/svg" xmlns:xlink="http://www.w3.org/1999/xlink" xmlns:sketch="http://www.bohemiancoding.com/sketch/ns">
    <!-- Generator: Sketch 3.3.1 (12005) - http://www.bohemiancoding.com/sketch -->
    <title>bg-birds</title>
    <desc>Created with Sketch.</desc>
    <defs></defs>
    <g id="Page-1" stroke="none" stroke-width="1" fill="none" fill-rule="evenodd" sketch:type="MSPage">
        <g id="home" sketch:type="MSArtboardGroup" transform="translate(-66.000000, -79.000000)" stroke-linecap="round" stroke="#737373" stroke-width="2">
            <g id="background" sketch:type="MSLayerGroup" transform="translate(-51.000000, 78.000000)">
                <g id="bg-sky" transform="translate(118.000000, 0.000000)" sketch:type="MSShapeGroup">
                    <g id="bg-birds">
                        <g id="ptak" transform="translate(26.000000, 5.000000) rotate(-10.000000) translate(-26.000000, -5.000000) translate(10.000000, 3.000000)">
                            <path d="M0.177455357,3.41086648 C0.177455357,3.41086648 11.6775088,-3.93251461 15.9369693,3.95632102" id="Path-24"></path>
                            <path d="M16.1774554,3.41086648 C16.1774554,3.41086648 27.6775088,-3.93251461 31.9369693,3.95632102" id="Path-25" transform="translate(24.057212, 2.129634) scale(-1, 1) translate(-24.057212, -2.129634) "></path>
                        </g>
                        <g id="ptak-2" transform="translate(8.000000, 27.000000) rotate(20.000000) translate(-8.000000, -27.000000) translate(0.000000, 26.000000)">
                            <path d="M0.0887276786,1.70543324 C0.0887276786,1.70543324 5.83875438,-1.9662573 7.96848467,1.97816051" id="Path-24"></path>
                            <path d="M8.08872768,1.70543324 C8.08872768,1.70543324 13.8387544,-1.9662573 15.9684847,1.97816051" id="Path-25" transform="translate(12.028606, 1.064817) scale(-1, 1) translate(-12.028606, -1.064817) "></path>
                        </g>
                        <g id="ptak-3" transform="translate(44.500000, 25.000000) rotate(-20.000000) translate(-44.500000, -25.000000) translate(30.000000, 23.000000)">
                            <path d="M0.160818917,3.41086648 C0.160818917,3.41086648 10.5827423,-3.93251461 14.4428785,3.95632102" id="Path-24"></path>
                            <path d="M14.6608189,3.41086648 C14.6608189,3.41086648 25.0827423,-3.93251461 28.9428785,3.95632102" id="Path-25" transform="translate(21.801849, 2.129634) scale(-1, 1) translate(-21.801849, -2.129634) "></path>
                        </g>
                    </g>
                </g>
            </g>
        </g>
    </g>
</svg>