<?xml version="1.0" encoding="UTF-8" standalone="no"?>
<svg width="52px" height="29px" viewBox="0 0 52 29" version="1.1" xmlns="http://www.w3.org/2000/svg" xmlns:xlink="http://www.w3.org/1999/xlink" xmlns:sketch="http://www.bohemiancoding.com/sketch/ns">
    <!-- Generator: Sketch 3.3.1 (12005) - http://www.bohemiancoding.com/sketch -->
    <title>bg-sky2</title>
    <desc>Created with Sketch.</desc>
    <defs>
        <path id="path-1" d="M0,21.597254 C0,20.2668058 0.799912294,19.1218048 1.94840146,18.6102471 C1.22829727,17.8021858 0.791208791,16.7398597 0.791208791,15.5762014 C0.791208791,13.0460548 2.85758687,10.9949657 5.40659341,10.9949657 C6.03063625,10.9949657 6.62575232,11.1178995 7.16870267,11.3407002 C7.72682763,4.98556703 13.1010289,0 19.6483516,0 C25.3379858,0 30.1417211,3.76491996 31.6689098,8.92180044 C32.7747475,8.24440455 34.0776524,7.85354691 35.4725275,7.85354691 C39.4781092,7.85354691 42.7252747,11.0766869 42.7252747,15.0526316 C42.7252747,15.2908016 42.7136228,15.5262703 42.6908539,15.7585066 C42.9171417,15.7246463 43.1488135,15.7070938 43.3846154,15.7070938 C45.9336219,15.7070938 48,17.7581829 48,20.2883295 C48,22.8184761 45.9336219,24.8695652 43.3846154,24.8695652 L3.42857143,24.8695652 C1.47598434,24.8695652 0,23.4045016 0,21.597254 Z"></path>
    </defs>
    <g id="Page-1" stroke="none" stroke-width="1" fill="none" fill-rule="evenodd" sketch:type="MSPage">
        <g id="home" sketch:type="MSArtboardGroup" transform="translate(-1031.000000, -98.000000)">
            <g id="background" sketch:type="MSLayerGroup" transform="translate(-51.000000, 78.000000)">
                <g id="bg-sky" transform="translate(118.000000, 0.000000)">
                    <g id="bg-sky2" transform="translate(966.000000, 22.000000)">
                        <path d="M3.14542043e-14,21.6164816 C1.80980795e-08,19.7332032 0.799677357,19.1972926 1.90680724,18.6973611 C1.21263537,17.9076649 0.791287284,16.8694826 0.791287284,15.732271 C0.791287284,13.2596277 3.34039401,12.4407323 5.79760597,12.4407323 C6.39917583,12.4407323 7.55857493,12.5608722 8.0819726,12.7786091 C8.61999842,6.56791087 13.2149502,1.69565217 19.5264914,1.69565217 C25.011231,1.69565217 29.6419746,5.37500577 31.1141663,10.4146844 C32.1801807,9.75268389 33.4361655,9.37070938 34.7808085,9.37070938 C38.6421416,9.37070938 41.7723705,12.5205962 41.7723705,16.4061785 C41.7723705,16.6389355 41.7611382,16.8690527 41.7391892,17.0960109 C41.957328,17.0629201 42.1806568,17.0457666 42.407967,17.0457666 C44.865179,17.0457666 46.8571429,19.05024 46.8571429,21.5228833 C46.8571429,23.9955266 44.865179,26 42.407967,26 L2.71938776,26 C0.837117048,26 -1.69726571e-08,23.3826553 3.14542043e-14,21.6164816 Z" id="fill" fill="#F8F8F8" sketch:type="MSShapeGroup"></path>
                        <g id="border">
                            <use stroke="#737373" stroke-width="2" sketch:type="MSShapeGroup" xlink:href="#path-1"></use>
                            <use stroke="none" xlink:href="#path-1"></use>
                        </g>
                        <path d="M0.0490767921,21.0315817 C0.016817557,21.2153298 0,21.4043425 0,21.597254 C0,23.4045016 1.47598434,24.8695652 3.42857143,24.8695652 L43.3846154,24.8695652 C45.9336219,24.8695652 48,22.8184761 48,20.2883295 C48,20.0969563 47.9881783,19.9083237 47.9652202,19.7231121 C47.6846487,21.9865844 45.7408222,23.7391304 43.3846154,23.7391304 L3.42857143,23.7391304 C1.68406593,23.7391304 0.319995378,22.569684 0.0490767921,21.0315817 Z M42.7032499,14.4874142 C42.7068253,14.5331106 42.7099709,14.5789267 42.7126826,14.6248586 C42.7054008,14.6259128 42.6981246,14.6269839 42.6908539,14.6280718 C42.695438,14.5813155 42.6995714,14.5344282 42.7032499,14.4874142 Z" id="shadow" fill="#E1E1E1" sketch:type="MSShapeGroup"></path>
                    </g>
                </g>
            </g>
        </g>
    </g>
</svg>