<?xml version="1.0" encoding="UTF-8" standalone="no"?>
<svg width="88px" height="48px" viewBox="0 0 88 48" version="1.1" xmlns="http://www.w3.org/2000/svg" xmlns:xlink="http://www.w3.org/1999/xlink" xmlns:sketch="http://www.bohemiancoding.com/sketch/ns">
    <!-- Generator: Sketch 3.3.1 (12005) - http://www.bohemiancoding.com/sketch -->
    <title>bg-sky</title>
    <desc>Created with Sketch.</desc>
    <defs>
        <path id="path-1" d="M0,38.2105263 C0,35.8566565 1.39984651,33.8308855 3.40970255,32.9258217 C2.14952022,31.4961749 1.38461538,29.6166748 1.38461538,27.5578947 C1.38461538,23.0814815 5.00077702,19.4526316 9.46153846,19.4526316 C10.5536134,19.4526316 11.5950666,19.6701299 12.5452297,20.0643157 C13.5219484,8.8206186 22.9268006,0 34.3846154,0 C44.3414752,0 52.7480119,6.66101224 55.4205921,15.7847239 C57.3558081,14.5862542 59.6358917,13.8947368 62.0769231,13.8947368 C69.0866911,13.8947368 74.7692308,19.5972153 74.7692308,26.6315789 C74.7692308,27.0529566 74.7488399,27.4695551 74.7089943,27.8804348 C75.104998,27.820528 75.5104236,27.7894737 75.9230769,27.7894737 C80.3838384,27.7894737 84,31.4183236 84,35.8947368 C84,40.3711501 80.3838384,44 75.9230769,44 L6,44 C2.5829726,44 0,41.4079643 0,38.2105263 Z"></path>
    </defs>
    <g id="Page-1" stroke="none" stroke-width="1" fill="none" fill-rule="evenodd" sketch:type="MSPage">
        <g id="home" sketch:type="MSArtboardGroup" transform="translate(-180.000000, -134.000000)">
            <g id="background" sketch:type="MSLayerGroup" transform="translate(-51.000000, 78.000000)">
                <g id="bg-sky" transform="translate(118.000000, 0.000000)">
                    <g transform="translate(115.000000, 58.000000)">
                        <path d="M5.5933036e-14,38.2445443 C3.167164e-08,34.9125902 1.39943537,33.9644407 3.33691267,33.0799466 C2.1221119,31.6827918 1.38475275,29.8460076 1.38475275,27.834018 C1.38475275,23.4593414 5.84568952,22.0105263 10.1458104,22.0105263 C11.1985577,22.0105263 13.2275061,22.2230815 14.1434521,22.6083085 C15.0849972,11.62015 23.1261629,3 34.1713599,3 C43.7696542,3 51.8734555,9.5096256 54.449791,18.4259801 C56.3153162,17.2547484 58.5132896,16.5789474 60.8664148,16.5789474 C67.6237477,16.5789474 73.1016484,22.151824 73.1016484,29.0263158 C73.1016484,29.4381167 73.0819918,29.845247 73.0435811,30.2467885 C73.425324,30.1882433 73.8161494,30.1578947 74.2139423,30.1578947 C78.5140632,30.1578947 82,33.7042708 82,38.0789474 C82,42.4536239 78.5140632,46 74.2139423,46 L4.75892857,46 C1.46495483,46 -2.97021491e-08,41.3693133 5.5933036e-14,38.2445443 Z" id="fill" fill="#F8F8F8" sketch:type="MSShapeGroup"></path>
                        <g id="border">
                            <use stroke="#737373" stroke-width="2" sketch:type="MSShapeGroup" xlink:href="#path-1"></use>
                            <use stroke="none" xlink:href="#path-1"></use>
                        </g>
                        <path d="M0.0858843862,37.2097215 C0.0294307248,37.5348142 0,37.8692213 0,38.2105263 C0,41.4079643 2.5829726,44 6,44 L75.9230769,44 C80.3838384,44 84,40.3711501 84,35.8947368 C84,35.5561534 83.979312,35.2224189 83.9391353,34.8947368 C83.4481353,38.8993416 80.0464388,42 75.9230769,42 L6,42 C2.94711538,42 0.559991911,39.9309793 0.0858843862,37.2097215 Z M74.7306874,25.6315789 C74.7369441,25.7124242 74.7424487,25.7934811 74.7471941,25.8747427 C74.7344514,25.8766149 74.721718,25.87851 74.7089943,25.8804348 C74.7170165,25.7977121 74.72425,25.7147576 74.7306874,25.6315789 Z" id="shadow" fill="#E1E1E1" sketch:type="MSShapeGroup"></path>
                    </g>
                </g>
            </g>
        </g>
    </g>
</svg>