<?xml version="1.0" encoding="UTF-8" standalone="no"?>
<svg width="1017px" height="204px" viewBox="0 0 1017 204" version="1.1" xmlns="http://www.w3.org/2000/svg" xmlns:xlink="http://www.w3.org/1999/xlink" xmlns:sketch="http://www.bohemiancoding.com/sketch/ns">
    <!-- Generator: Sketch 3.3.1 (12005) - http://www.bohemiancoding.com/sketch -->
    <title>bg-sky</title>
    <desc>Created with Sketch.</desc>
    <defs>
        <path id="path-1" d="M0,38.2105263 C0,35.8566565 1.39984651,33.8308855 3.40970255,32.9258217 C2.14952022,31.4961749 1.38461538,29.6166748 1.38461538,27.5578947 C1.38461538,23.0814815 5.00077702,19.4526316 9.46153846,19.4526316 C10.5536134,19.4526316 11.5950666,19.6701299 12.5452297,20.0643157 C13.5219484,8.8206186 22.9268006,0 34.3846154,0 C44.3414752,0 52.7480119,6.66101224 55.4205921,15.7847239 C57.3558081,14.5862542 59.6358917,13.8947368 62.0769231,13.8947368 C69.0866911,13.8947368 74.7692308,19.5972153 74.7692308,26.6315789 C74.7692308,27.0529566 74.7488399,27.4695551 74.7089943,27.8804348 C75.104998,27.820528 75.5104236,27.7894737 75.9230769,27.7894737 C80.3838384,27.7894737 84,31.4183236 84,35.8947368 C84,40.3711501 80.3838384,44 75.9230769,44 L6,44 C2.5829726,44 0,41.4079643 0,38.2105263 Z"></path>
        <path id="path-2" d="M0,21.597254 C0,20.2668058 0.799912294,19.1218048 1.94840146,18.6102471 C1.22829727,17.8021858 0.791208791,16.7398597 0.791208791,15.5762014 C0.791208791,13.0460548 2.85758687,10.9949657 5.40659341,10.9949657 C6.03063625,10.9949657 6.62575232,11.1178995 7.16870267,11.3407002 C7.72682763,4.98556703 13.1010289,0 19.6483516,0 C25.3379858,0 30.1417211,3.76491996 31.6689098,8.92180044 C32.7747475,8.24440455 34.0776524,7.85354691 35.4725275,7.85354691 C39.4781092,7.85354691 42.7252747,11.0766869 42.7252747,15.0526316 C42.7252747,15.2908016 42.7136228,15.5262703 42.6908539,15.7585066 C42.9171417,15.7246463 43.1488135,15.7070938 43.3846154,15.7070938 C45.9336219,15.7070938 48,17.7581829 48,20.2883295 C48,22.8184761 45.9336219,24.8695652 43.3846154,24.8695652 L3.42857143,24.8695652 C1.47598434,24.8695652 0,23.4045016 0,21.597254 Z"></path>
    </defs>
    <g id="Page-1" stroke="none" stroke-width="1" fill="none" fill-rule="evenodd" sketch:type="MSPage">
        <g id="home" sketch:type="MSArtboardGroup" transform="translate(-66.000000, -79.000000)">
            <g id="background" sketch:type="MSLayerGroup" transform="translate(-51.000000, 78.000000)">
                <g id="bg-sky" transform="translate(118.000000, 0.000000)">
                    <g id="mrak-1" transform="translate(115.000000, 58.000000)">
                        <path d="M5.5933036e-14,38.2445443 C3.167164e-08,34.9125902 1.39943537,33.9644407 3.33691267,33.0799466 C2.1221119,31.6827918 1.38475275,29.8460076 1.38475275,27.834018 C1.38475275,23.4593414 5.84568952,22.0105263 10.1458104,22.0105263 C11.1985577,22.0105263 13.2275061,22.2230815 14.1434521,22.6083085 C15.0849972,11.62015 23.1261629,3 34.1713599,3 C43.7696542,3 51.8734555,9.5096256 54.449791,18.4259801 C56.3153162,17.2547484 58.5132896,16.5789474 60.8664148,16.5789474 C67.6237477,16.5789474 73.1016484,22.151824 73.1016484,29.0263158 C73.1016484,29.4381167 73.0819918,29.845247 73.0435811,30.2467885 C73.425324,30.1882433 73.8161494,30.1578947 74.2139423,30.1578947 C78.5140632,30.1578947 82,33.7042708 82,38.0789474 C82,42.4536239 78.5140632,46 74.2139423,46 L4.75892857,46 C1.46495483,46 -2.97021491e-08,41.3693133 5.5933036e-14,38.2445443 Z" id="fill" fill="#F8F8F8" sketch:type="MSShapeGroup"></path>
                        <g id="border">
                            <use stroke="#737373" stroke-width="2" sketch:type="MSShapeGroup" xlink:href="#path-1"></use>
                            <use stroke="none" xlink:href="#path-1"></use>
                        </g>
                        <path d="M0.0858843862,37.2097215 C0.0294307248,37.5348142 0,37.8692213 0,38.2105263 C0,41.4079643 2.5829726,44 6,44 L75.9230769,44 C80.3838384,44 84,40.3711501 84,35.8947368 C84,35.5561534 83.979312,35.2224189 83.9391353,34.8947368 C83.4481353,38.8993416 80.0464388,42 75.9230769,42 L6,42 C2.94711538,42 0.559991911,39.9309793 0.0858843862,37.2097215 Z M74.7306874,25.6315789 C74.7369441,25.7124242 74.7424487,25.7934811 74.7471941,25.8747427 C74.7344514,25.8766149 74.721718,25.87851 74.7089943,25.8804348 C74.7170165,25.7977121 74.72425,25.7147576 74.7306874,25.6315789 Z" id="shadow" fill="#E1E1E1" sketch:type="MSShapeGroup"></path>
                    </g>
                    <g id="mrak-2" transform="translate(966.000000, 22.000000)">
                        <path d="M3.14542043e-14,21.6164816 C1.80980795e-08,19.7332032 0.799677357,19.1972926 1.90680724,18.6973611 C1.21263537,17.9076649 0.791287284,16.8694826 0.791287284,15.732271 C0.791287284,13.2596277 3.34039401,12.4407323 5.79760597,12.4407323 C6.39917583,12.4407323 7.55857493,12.5608722 8.0819726,12.7786091 C8.61999842,6.56791087 13.2149502,1.69565217 19.5264914,1.69565217 C25.011231,1.69565217 29.6419746,5.37500577 31.1141663,10.4146844 C32.1801807,9.75268389 33.4361655,9.37070938 34.7808085,9.37070938 C38.6421416,9.37070938 41.7723705,12.5205962 41.7723705,16.4061785 C41.7723705,16.6389355 41.7611382,16.8690527 41.7391892,17.0960109 C41.957328,17.0629201 42.1806568,17.0457666 42.407967,17.0457666 C44.865179,17.0457666 46.8571429,19.05024 46.8571429,21.5228833 C46.8571429,23.9955266 44.865179,26 42.407967,26 L2.71938776,26 C0.837117048,26 -1.69726571e-08,23.3826553 3.14542043e-14,21.6164816 Z" id="fill" fill="#F8F8F8" sketch:type="MSShapeGroup"></path>
                        <g id="border">
                            <use stroke="#737373" stroke-width="2" sketch:type="MSShapeGroup" xlink:href="#path-2"></use>
                            <use stroke="none" xlink:href="#path-2"></use>
                        </g>
                        <path d="M0.0490767921,21.0315817 C0.016817557,21.2153298 0,21.4043425 0,21.597254 C0,23.4045016 1.47598434,24.8695652 3.42857143,24.8695652 L43.3846154,24.8695652 C45.9336219,24.8695652 48,22.8184761 48,20.2883295 C48,20.0969563 47.9881783,19.9083237 47.9652202,19.7231121 C47.6846487,21.9865844 45.7408222,23.7391304 43.3846154,23.7391304 L3.42857143,23.7391304 C1.68406593,23.7391304 0.319995378,22.569684 0.0490767921,21.0315817 Z M42.7032499,14.4874142 C42.7068253,14.5331106 42.7099709,14.5789267 42.7126826,14.6248586 C42.7054008,14.6259128 42.6981246,14.6269839 42.6908539,14.6280718 C42.695438,14.5813155 42.6995714,14.5344282 42.7032499,14.4874142 Z" id="shadow" fill="#E1E1E1" sketch:type="MSShapeGroup"></path>
                    </g>
                    <g id="ptak" transform="translate(26.000000, 5.000000) rotate(-10.000000) translate(-26.000000, -5.000000) translate(10.000000, 3.000000)" stroke="#737373" stroke-width="2" sketch:type="MSShapeGroup" stroke-linecap="round">
                        <path d="M0.177455357,3.41086648 C0.177455357,3.41086648 11.6775088,-3.93251461 15.9369693,3.95632102" id="Path-24"></path>
                        <path d="M16.1774554,3.41086648 C16.1774554,3.41086648 27.6775088,-3.93251461 31.9369693,3.95632102" id="Path-25" transform="translate(24.057212, 2.129634) scale(-1, 1) translate(-24.057212, -2.129634) "></path>
                    </g>
                    <g id="ptak-2" transform="translate(8.000000, 27.000000) rotate(20.000000) translate(-8.000000, -27.000000) translate(0.000000, 26.000000)" stroke="#737373" stroke-width="2" sketch:type="MSShapeGroup" stroke-linecap="round">
                        <path d="M0.0887276786,1.70543324 C0.0887276786,1.70543324 5.83875438,-1.9662573 7.96848467,1.97816051" id="Path-24"></path>
                        <path d="M8.08872768,1.70543324 C8.08872768,1.70543324 13.8387544,-1.9662573 15.9684847,1.97816051" id="Path-25" transform="translate(12.028606, 1.064817) scale(-1, 1) translate(-12.028606, -1.064817) "></path>
                    </g>
                    <g id="ptak-3" transform="translate(44.500000, 25.000000) rotate(-20.000000) translate(-44.500000, -25.000000) translate(30.000000, 23.000000)" stroke="#737373" stroke-width="2" sketch:type="MSShapeGroup" stroke-linecap="round">
                        <path d="M0.160818917,3.41086648 C0.160818917,3.41086648 10.5827423,-3.93251461 14.4428785,3.95632102" id="Path-24"></path>
                        <path d="M14.6608189,3.41086648 C14.6608189,3.41086648 25.0827423,-3.93251461 28.9428785,3.95632102" id="Path-25" transform="translate(21.801849, 2.129634) scale(-1, 1) translate(-21.801849, -2.129634) "></path>
                    </g>
                    <g id="vzduchold" transform="translate(891.000000, 131.000000)" sketch:type="MSShapeGroup">
                        <path d="M43.2097,39.720718 C67.0737584,39.720718 83.4823997,22.5698418 83.4823997,22.5698418 C85.1044602,21.0734358 84.8164199,20.6391633 82.7895429,21.5460967 C82.7895429,21.5460967 67.0737584,30 43.2097,30 C19.3456417,30 3.6166555,21.5404021 3.6166555,21.5404021 C1.61923182,20.6125399 1.29453239,21.1027134 2.93700034,22.5698418 C2.93700034,22.5698418 19.3456417,39.720718 43.2097,39.720718 Z" id="Oval-10" fill="#E1E1E1"></path>
                        <path d="M43.2097,39.720718 C67.0737584,39.720718 83.4823997,22.5698418 83.4823997,22.5698418 C85.1044602,21.0734358 85.1248677,18.6180046 83.4823997,17.1508762 C83.4823997,17.1508762 67.0737584,0 43.2097,0 C19.3456417,0 2.93700034,17.1508762 2.93700034,17.1508762 C1.31493984,18.6472822 1.29453239,21.1027134 2.93700034,22.5698418 C2.93700034,22.5698418 19.3456417,39.720718 43.2097,39.720718 Z" id="Oval-1" stroke="#737373" stroke-width="2" stroke-linecap="round"></path>
                        <path d="M43.2097,30.0882634 C67.0737584,30.0882634 82.815924,21.5308424 82.815924,21.5308424 C84.8060689,20.5960568 84.8164199,19.0509827 82.8027446,18.1399348 C82.8027446,18.1399348 67.0737584,9.58826336 43.2097,9.58826336 C19.3456417,9.58826336 3.60347608,18.1456843 3.60347608,18.1456843 C1.61333119,19.0804699 1.60298011,20.625544 3.6166555,21.5365919 C3.6166555,21.5365919 19.3456417,30.0882634 43.2097,30.0882634 Z" id="Oval-11" fill="#F8F8F8"></path>
                        <path d="M43.2097,30.0882634 C67.0737584,30.0882634 82.815924,21.5308424 82.815924,21.5308424 C84.8060689,20.5960568 84.8164199,19.0509827 82.8027446,18.1399348 C82.8027446,18.1399348 67.0737584,9.58826336 43.2097,9.58826336 C19.3456417,9.58826336 3.60347608,18.1456843 3.60347608,18.1456843 C1.61333119,19.0804699 1.60298011,20.625544 3.6166555,21.5365919 C3.6166555,21.5365919 19.3456417,30.0882634 43.2097,30.0882634 Z" id="Oval-12" stroke="#737373" stroke-linecap="round"></path>
                        <path d="M1.61029938,20 L84.6802738,20" id="Path-1" stroke="#737373" stroke-linecap="round"></path>
                        <path d="M43,0.53676646 L43,39.0443911" id="Path-2" stroke="#737373" stroke-linecap="round"></path>
                        <path d="M33,1.61029938 L33,37.9708603" id="Path-3" stroke="#737373" stroke-linecap="round"></path>
                        <path d="M22,5.3676646 L22,34.2134951" id="Path-4" stroke="#737373" stroke-linecap="round"></path>
                        <path d="M11,11.2720957 L11,28.309063" id="Path-5" stroke="#737373" stroke-linecap="round"></path>
                        <path d="M54,2.14706584 L54,37.4340938" id="Path-8" stroke="#737373" stroke-linecap="round"></path>
                        <path d="M65,5.3676646 L65,34.2134951" id="Path-7" stroke="#737373" stroke-linecap="round"></path>
                        <path d="M76,11.8088621 L76,28.309063" id="Path-6" stroke="#737373" stroke-linecap="round"></path>
                        <path d="M22.3340147,34.5893432 L25.017847,57.5628398" id="Path-9" stroke="#737373" stroke-linecap="round"></path>
                        <path d="M64.738565,34.5893432 L62.1707356,56.5698599" id="Path-12" stroke="#737373" stroke-linecap="round"></path>
                        <path d="M21.9597863,35.5893432 L59.0030306,57.425049" id="Path-14" stroke="#737373" stroke-linecap="round"></path>
                        <path d="M27.9597863,35.5893432 L65.0030306,57.425049" id="Path-16" stroke="#737373" stroke-linecap="round" transform="translate(46.481408, 46.507196) scale(-1, 1) translate(-46.481408, -46.507196) "></path>
                        <path d="M33.0693439,36.736409 L35.4051056,56.7304352" id="Path-10" stroke="#737373" stroke-linecap="round"></path>
                        <path d="M54.0032358,36.736409 L51.6674741,56.7304352" id="Path-11" stroke="#737373" stroke-linecap="round"></path>
                        <path d="M18.3189439,62.9336632 C17.9844523,61.3134457 19.053157,60 20.7112645,60 L67.3184349,60 C68.9741688,60 70.0442965,61.3180505 69.7107555,62.9336632 L68.6433916,68.1037817 C68.0851324,70.8078884 65.3860873,73 62.6334273,73 L25.3962721,73 C22.6353197,73 19.9448848,70.8094275 19.3863079,68.1037817 L18.3189439,62.9336632 Z" id="Rectangle-2" fill="#F8F8F8"></path>
                        <path d="M19.7048703,71.1512985 C19.1689195,70.5154539 19.397595,70 20.2312489,70 L66.799919,70 C67.6265807,70 67.867765,70.5089091 67.3262976,71.1512985 L66.7384595,71.8487015 C66.2025087,72.4845461 65.10437,73 64.2617754,73 L22.7693925,73 C21.9375084,73 20.8341758,72.4910909 20.2927084,71.8487015 L19.7048703,71.1512985 Z" id="shad" fill="#E1E1E1"></path>
                        <path d="M18.2086771,59.9532926 C17.9350841,58.3222341 19.053157,57 20.7112645,57 L67.3184349,57 C68.9741688,57 70.0944937,58.3229595 69.8210224,59.9532926 L68.4597114,68.0689175 C68.002896,70.7922792 65.3860873,73 62.6334273,73 L25.3962721,73 C22.6353197,73 20.0267679,70.792067 19.5699881,68.0689175 L18.2086771,59.9532926 Z" id="Rectangle-3" stroke="#737373" stroke-width="2" stroke-linecap="round"></path>
                        <ellipse id="Oval-3" stroke="#737373" stroke-linecap="round" cx="27.3015565" cy="64.1470658" rx="2.14706584" ry="2.14706584"></ellipse>
                        <ellipse id="Oval-4" stroke="#737373" stroke-linecap="round" cx="34.8898199" cy="64.1470658" rx="2.14706584" ry="2.14706584"></ellipse>
                        <ellipse id="Oval-5" stroke="#737373" stroke-linecap="round" cx="42.4780833" cy="64.1470658" rx="2.14706584" ry="2.14706584"></ellipse>
                        <ellipse id="Oval-6" stroke="#737373" stroke-linecap="round" cx="50.0663466" cy="64.1470658" rx="2.14706584" ry="2.14706584"></ellipse>
                        <ellipse id="Oval-7" stroke="#737373" stroke-linecap="round" cx="57.65461" cy="64.1470658" rx="2.14706584" ry="2.14706584"></ellipse>
                        <path d="M67,57 L75,57" id="Path-15" stroke="#737373" stroke-width="2" stroke-linecap="round"></path>
                        <path d="M78,58 C78,58 80,54.9512703 80,53.5454545 C80,52.1396388 79.1045695,51 78,51 C76.8954305,51 76,52.1396388 76,53.5454545 C76,54.9512703 78,58 78,58 Z" id="Oval-8" stroke="#737373" stroke-width="2" stroke-linecap="round" transform="translate(78.000000, 54.500000) rotate(40.000000) translate(-78.000000, -54.500000) "></path>
                        <path d="M78,63 C78,63 80,59.9512703 80,58.5454545 C80,57.1396388 79.1045695,56 78,56 C76.8954305,56 76,57.1396388 76,58.5454545 C76,59.9512703 78,63 78,63 Z" id="Oval-9" stroke="#737373" stroke-width="2" stroke-linecap="round" transform="translate(78.000000, 59.500000) scale(1, -1) rotate(40.000000) translate(-78.000000, -59.500000) "></path>
                    </g>
                </g>
            </g>
        </g>
    </g>
</svg>